<?xml version="1.0" encoding="UTF-8"?>
<svg version="1.1" xmlns="http://www.w3.org/2000/svg" width="326" height="609">
<path d="M0 0 C107.58 0 215.16 0 326 0 C326 200.97 326 401.94 326 609 C218.42 609 110.84 609 0 609 C0 408.03 0 207.06 0 0 Z " fill="#C4C8EA" transform="translate(0,0)"/>
<path d="M0 0 C0.99 0 1.98 0 3 0 C2.99983765 0.7416212 2.9996753 1.48324241 2.99950802 2.24733698 C2.99064022 46.2300841 3.01301207 90.21272062 3.07579029 134.1954268 C3.08330608 139.4798936 3.09056161 144.76436074 3.09765625 150.04882812 C3.099073 151.10084279 3.10048975 152.15285746 3.10194944 153.23675136 C3.12425035 170.25690758 3.12548244 187.27700313 3.11888863 204.29716988 C3.11259011 221.76954445 3.12902507 239.24179172 3.16643608 256.7141279 C3.18879652 267.49013225 3.19355677 278.26584626 3.17559664 289.04186009 C3.16497124 296.43764131 3.17648557 303.83318467 3.20516153 311.22891702 C3.22104499 315.49200261 3.22740493 319.75452191 3.20739174 324.01760292 C3.18924492 327.92928214 3.19922244 331.8398954 3.23053883 335.75148205 C3.23702075 337.15817268 3.23363253 338.56495546 3.21874608 339.97158225 C3.11611471 350.4540011 5.31344065 357.78565213 10 367 C10.46154264 367.90885598 10.92308527 368.81771196 11.39861405 369.75410903 C12.52302518 371.91949363 13.68719752 374.05632378 14.875 376.1875 C19 383.59795673 19 383.59795673 19 387 C19.66 387 20.32 387 21 387 C21 385.68 21 384.36 21 383 C21.9590625 382.62875 21.9590625 382.62875 22.9375 382.25 C25.19060573 381.19851273 25.19060573 381.19851273 25.625 378.9375 C25.74875 378.298125 25.8725 377.65875 26 377 C26.66 376.67 27.32 376.34 28 376 C28.70748458 374.35024614 29.36263724 372.67809146 30 371 C31.2398653 368.28680692 32.5557374 365.61280761 33.875 362.9375 C34.21402344 362.23044922 34.55304687 361.52339844 34.90234375 360.79492188 C36.8287464 356.89450586 38.65033638 353.89152577 42 351 C42.35191406 351.83660156 42.70382813 352.67320312 43.06640625 353.53515625 C46.15266548 360.81163689 49.34546992 368.0081738 52.81469727 375.11157227 C54.17269954 377.94754709 55 379.81084619 55 383 C55.66 383 56.32 383 57 383 C58.44521006 386.28456832 59.83053472 389.47086789 60.92578125 392.890625 C61.99386354 395.98223773 63.30010339 398.72790254 64.8125 401.625 C68.91910787 409.70863831 72.26156959 418.01399485 75.4375 426.5 C77.51964412 431.97794384 79.98384434 437.15366647 82.66015625 442.36328125 C84.26256085 445.51670138 85.63554489 448.73717257 87 452 C88.26262259 454.78829155 89.53752549 457.57069406 90.81640625 460.3515625 C91.94573393 462.87857296 92.97709966 465.42848561 94 468 C94.70032449 469.6076792 95.40836857 471.21202313 96.125 472.8125 C96.47820312 473.60269531 96.83140625 474.39289063 97.1953125 475.20703125 C97.59363281 476.09455078 97.59363281 476.09455078 98 477 C100.98162648 474.31935789 102.99718996 471.15182515 105.1875 467.8125 C106.26064453 466.18248047 106.26064453 466.18248047 107.35546875 464.51953125 C107.89816406 463.68808594 108.44085938 462.85664063 109 462 C113.09367333 462.50824387 114.68884268 464.51011004 117.3125 467.5625 C118.10527344 468.47515625 118.89804688 469.3878125 119.71484375 470.328125 C120.84599609 471.65070313 120.84599609 471.65070313 122 473 C123.12401031 474.27170877 124.24892803 475.54261643 125.375 476.8125 C128.5106362 480.41077105 131.60150023 484.0466736 134.6875 487.6875 C135.15140137 488.23446533 135.61530273 488.78143066 136.09326172 489.3449707 C138.17628528 491.80941936 140.22330007 494.28653549 142.20703125 496.83203125 C143.81812567 499.07749464 143.81812567 499.07749464 146 500 C146.25394531 499.16339844 146.50789062 498.32679688 146.76953125 497.46484375 C148.12035184 493.66110451 149.84141895 490.14093505 151.6875 486.5625 C155.08975617 479.8842859 158.27952521 473.1371698 161.359375 466.3046875 C163 463 163 463 165.046875 459.9765625 C167.07961552 456.87866594 168.2712196 453.98707951 169.5 450.5 C171.22725844 445.82089433 172.95900016 441.94203683 176 438 C181.25857635 442.29271539 185.62600651 446.82548317 190 452 C190.91796607 453.05712401 191.83734634 454.11302092 192.7578125 455.16796875 C198.36943581 461.62415684 203.80486109 468.13044492 208.7902832 475.08862305 C209.79177124 476.44567651 210.88907689 477.73097587 212 479 C212.99 479 213.98 479 215 479 C216.74908648 476.89311802 216.74908648 476.89311802 218.4375 474.0625 C221.82886845 468.77246487 225.3517085 463.61618559 229 458.5 C233.12334826 452.69408445 237.14989615 446.84022493 241.0703125 440.89453125 C243.19195795 437.71206308 245.37204374 434.57270556 247.5625 431.4375 C250.39534573 427.37806127 253.09400148 423.27836323 255.6875 419.0625 C258.39800591 414.72946386 261.3161951 411.51635923 265 408 C266.89322232 405.23298276 268.23068507 402.49426735 269.625 399.4375 C272.08230332 394.37834611 275.60199942 390.12153265 279.07421875 385.734375 C281.07517892 383.24521514 281.07517892 383.24521514 281.51953125 380.890625 C282.21362549 378.15939239 284.00873759 376.97000338 286 375 C287.80633988 372.17801996 289.50437066 369.32744945 291.17578125 366.42578125 C292.06711305 364.91973787 293.02828209 363.45547358 294 362 C294.66 362 295.32 362 296 362 C296.268125 361.05125 296.53625 360.1025 296.8125 359.125 C298 356 298 356 301 354 C302.33238315 351.92286143 302.33238315 351.92286143 303.5 349.5625 C305.03110679 346.58371211 306.39655487 344.15338148 309 342 C309.66 342 310.32 342 311 342 C311.2475 341.2575 311.495 340.515 311.75 339.75 C313.09147301 336.79875938 314.60905526 335.15185026 317 333 C320.16115776 334.36983503 320.9927092 334.9890638 323 338 C323.33 226.46 323.66 114.92 324 0 C324.66 0 325.32 0 326 0 C326 200.97 326 401.94 326 609 C218.42 609 110.84 609 0 609 C0 408.03 0 207.06 0 0 Z " fill="#975C93" transform="translate(0,0)"/>
<path d="M0 0 C9.5158479 0.6683418 18.98515932 0.78610592 28.52172852 0.76318359 C31.24826312 0.75769811 33.97464144 0.76323497 36.70117188 0.76953125 C38.43880245 0.76887242 40.17643292 0.76759532 41.9140625 0.765625 C42.72738541 0.76764923 43.54070831 0.76967346 44.37867737 0.77175903 C48.05469547 1.10662092 48.05469547 1.10662092 51.12890625 -0.3671875 C53.63425252 -0.46872711 56.1113685 -0.50667723 58.6171875 -0.5 C59.38352005 -0.50140991 60.1498526 -0.50281982 60.93940735 -0.50427246 C63.44011992 -0.50641646 65.94070644 -0.50010356 68.44140625 -0.4921875 C69.28636658 -0.4906366 70.1313269 -0.48908569 71.00189209 -0.48748779 C80.58875281 -0.46668902 90.17574068 -0.44057259 99.75390625 0.0078125 C100.82958862 0.05397705 100.82958862 0.05397705 101.92700195 0.10107422 C105.8094569 0.32356183 109.48280679 0.88537644 113.29296875 1.66796875 C119.83877785 2.91306472 126.23805313 2.81108875 132.87890625 2.6953125 C142.68922528 2.60254353 152.35940911 2.7023842 162.12890625 3.6328125 C163.19140625 6.0078125 163.19140625 6.0078125 164.12890625 8.6328125 C163.79890625 9.2928125 163.46890625 9.9528125 163.12890625 10.6328125 C164.70671875 11.1278125 164.70671875 11.1278125 166.31640625 11.6328125 C171.04967127 13.6353477 172.8627513 17.21083973 175.12890625 21.6328125 C175.49757813 22.30054688 175.86625 22.96828125 176.24609375 23.65625 C178.4009438 28.48082578 177.35621876 33.41305697 175.69140625 38.1953125 C175.42457031 38.87722656 175.15773438 39.55914062 174.8828125 40.26171875 C173.90191535 43.34671651 173.52918464 46.42669921 173.12890625 49.6328125 C173.95914307 49.79100464 173.95914307 49.79100464 174.80615234 49.95239258 C194.30753894 53.69235673 194.30753894 53.69235673 203.12890625 56.6328125 C201.33459957 61.6514063 198.50835228 65.65369308 195.4921875 70.01171875 C193.92978234 72.46707651 193.92978234 72.46707651 194.26171875 74.83203125 C195.57227631 77.55350438 197.71546737 78.90008715 200.12890625 80.6328125 C199.24301339 85.03117186 196.83966003 88.04549787 194.19140625 91.5703125 C191.24158213 95.50480209 188.84935574 98.98680603 187.12890625 103.6328125 C185.90234375 105.51953125 185.90234375 105.51953125 184.50390625 107.3203125 C183.97796875 108.00351562 183.45203125 108.68671875 182.91015625 109.390625 C181.6497981 110.97712846 180.37777263 112.55439568 179.09765625 114.125 C175.77768688 118.20063405 172.71973384 122.0778747 170.2421875 126.73828125 C168.76569393 129.25091066 167.04937138 131.54016174 165.31640625 133.8828125 C162.69299335 137.43525052 160.21002916 141.00749741 157.87890625 144.7578125 C153.41926831 151.88508775 148.49036707 158.676799 143.62011719 165.52587891 C140.07823012 170.53021509 136.60630564 175.58355833 133.12890625 180.6328125 C130.59747107 180.26102504 129.3838912 179.90012496 127.59375 178.0234375 C127.08972656 177.31703125 126.58570313 176.610625 126.06640625 175.8828125 C123.10220294 171.89253882 120.03068298 168.04662719 116.81640625 164.2578125 C116.34879883 163.70625488 115.88119141 163.15469727 115.39941406 162.58642578 C111.48446117 157.99754362 107.44644123 153.53343275 103.3671875 149.08984375 C100.54848815 145.99566942 97.82916222 142.83048404 95.12890625 139.6328125 C92.02961599 141.18245763 91.52332134 143.77326684 90.12890625 146.8828125 C89.61328125 148.02234375 89.09765625 149.161875 88.56640625 150.3359375 C87.73758072 152.23683083 86.93169555 154.14884716 86.19140625 156.0859375 C84.45355433 160.25167078 82.21358099 164.14817213 80.05078125 168.10546875 C78.17988934 171.56103402 76.57224399 174.97313605 75.12890625 178.6328125 C74.17346348 180.43724203 73.19313441 182.22866172 72.19140625 184.0078125 C69.89981929 188.15051106 67.91621913 192.25389594 66.12890625 196.6328125 C65.47601998 197.97294747 64.8166503 199.31022778 64.12890625 200.6328125 C60.33861605 199.12347994 58.54212636 196.95079732 56.06640625 193.7578125 C51.80259708 188.3927546 47.28595923 183.3666268 42.609375 178.359375 C36.14723863 171.25611328 36.14723863 171.25611328 36.06640625 168.5078125 C38.95450214 163.4111727 46.81556997 161.40692648 52.12890625 159.6328125 C53.11890625 159.6328125 54.10890625 159.6328125 55.12890625 159.6328125 C55.12890625 158.9728125 55.12890625 158.3128125 55.12890625 157.6328125 C56.10730469 157.24609375 57.08570313 156.859375 58.09375 156.4609375 C65.17161941 153.65290409 72.1990847 150.79378373 79.12890625 147.6328125 C76.9602133 145.46411955 75.77407671 145.03242803 72.90234375 144.1171875 C72.04213623 143.83818604 71.18192871 143.55918457 70.2956543 143.27172852 C68.91373901 142.83171509 68.91373901 142.83171509 67.50390625 142.3828125 C58.27479333 139.38269549 49.18081557 136.12810422 40.12890625 132.6328125 C41.12890625 129.6328125 41.12890625 129.6328125 43.74609375 128.02734375 C44.82117188 127.50527344 45.89625 126.98320312 47.00390625 126.4453125 C48.07382813 125.91550781 49.14375 125.38570313 50.24609375 124.83984375 C53.12890625 123.6328125 53.12890625 123.6328125 56.12890625 123.6328125 C56.12890625 122.9728125 56.12890625 122.3128125 56.12890625 121.6328125 C57.12148437 121.20871094 58.1140625 120.78460938 59.13671875 120.34765625 C68.29821819 116.40299579 77.25697902 112.19353759 86.12890625 107.6328125 C85.1702063 107.34615723 85.1702063 107.34615723 84.19213867 107.05371094 C81.23255904 106.16671764 78.27448799 105.27478792 75.31640625 104.3828125 C74.31158203 104.08246094 73.30675781 103.78210938 72.27148438 103.47265625 C66.26422139 101.65695618 60.34906083 99.68588224 54.46679688 97.49804688 C51.70843238 96.47719853 48.92651077 95.54014369 46.12890625 94.6328125 C46.12890625 93.9728125 46.12890625 93.3128125 46.12890625 92.6328125 C45.17177734 92.55933594 45.17177734 92.55933594 44.1953125 92.484375 C43.36902344 92.40960938 42.54273438 92.33484375 41.69140625 92.2578125 C40.86769531 92.18820312 40.04398438 92.11859375 39.1953125 92.046875 C38.51339844 91.91023438 37.83148438 91.77359375 37.12890625 91.6328125 C36.79890625 90.9728125 36.46890625 90.3128125 36.12890625 89.6328125 C39.59217293 87.32396805 42.22942001 86.95601359 46.265625 86.29296875 C49.26110364 85.6744058 49.26110364 85.6744058 52.5078125 84.3203125 C59.60271733 81.57182079 67.09040379 79.93297498 74.44921875 78.03686523 C76.45278076 77.51907206 78.45491655 76.99601269 80.45703125 76.47265625 C82.2344873 76.01427368 82.2344873 76.01427368 84.04785156 75.54663086 C86.62481953 74.78232095 88.79316653 73.93865095 91.12890625 72.6328125 C90.11691162 72.29548096 89.10491699 71.95814941 88.06225586 71.6105957 C69.24414062 65.33789062 69.24414062 65.33789062 66.85250854 64.54066467 C65.26066284 64.01005963 63.66880488 63.47949131 62.07693481 62.94895935 C58.34706625 61.70583811 54.61736093 60.46223446 50.88818359 59.21704102 C43.19547098 56.647136 43.19547098 56.647136 35.48828125 54.12109375 C34.2971875 53.73308594 33.10609375 53.34507812 31.87890625 52.9453125 C30.656875 52.54957031 29.43484375 52.15382813 28.17578125 51.74609375 C25.12890625 50.6328125 25.12890625 50.6328125 22.12890625 48.6328125 C21.46890625 48.6328125 20.80890625 48.6328125 20.12890625 48.6328125 C17.38514954 45.67799758 17.12890625 44.85809342 17.12890625 40.6328125 C17.78890625 40.6328125 18.44890625 40.6328125 19.12890625 40.6328125 C16.52311193 35.7333208 16.52311193 35.7333208 13.00390625 31.5078125 C10.8674583 29.37136455 10.07616431 27.47458669 9.12890625 24.6328125 C8.46890625 24.6328125 7.80890625 24.6328125 7.12890625 24.6328125 C7.02578125 23.9934375 6.92265625 23.3540625 6.81640625 22.6953125 C6.58953125 22.0146875 6.36265625 21.3340625 6.12890625 20.6328125 C5.13890625 20.3028125 4.14890625 19.9728125 3.12890625 19.6328125 C1.69921875 18.21484375 1.69921875 18.21484375 0.25390625 16.4453125 C-0.51953125 15.50558594 -0.51953125 15.50558594 -1.30859375 14.546875 C-1.82421875 13.91523438 -2.33984375 13.28359375 -2.87109375 12.6328125 C-3.36609375 12.06304687 -3.86109375 11.49328125 -4.37109375 10.90625 C-7.87109375 6.86931818 -7.87109375 6.86931818 -7.87109375 4.6328125 C-8.86109375 4.3028125 -9.85109375 3.9728125 -10.87109375 3.6328125 C-10.87109375 2.9728125 -10.87109375 2.3128125 -10.87109375 1.6328125 C-7.05414822 -0.91181785 -4.36170877 -0.37050707 0 0 Z " fill="#D7DFF9" transform="translate(81.87109375,299.3671875)"/>
<path d="M0 0 C0.33 0 0.66 0 1 0 C1 200.97 1 401.94 1 609 C-62.03 609 -125.06 609 -190 609 C-190.33 607.68 -190.66 606.36 -191 605 C-189.35 604.67 -187.7 604.34 -186 604 C-186 602.68 -186 601.36 -186 600 C-188.31 600 -190.62 600 -193 600 C-192.505 597.525 -192.505 597.525 -192 595 C-191.34 595 -190.68 595 -190 595 C-192.10778194 591.31138161 -194.29797894 588.37752632 -197 585 C-192.05 585 -187.1 585 -182 585 C-182 582.36 -182 579.72 -182 577 C-183.98 577 -185.96 577 -188 577 C-188.33 576.34 -188.66 575.68 -189 575 C-187.865625 574.71125 -186.73125 574.4225 -185.5625 574.125 C-184.386875 573.75375 -183.21125 573.3825 -182 573 C-181.67 572.34 -181.34 571.68 -181 571 C-181.99 570.67 -182.98 570.34 -184 570 C-183.67 569.67 -183.34 569.34 -183 569 C-183.99 568.34 -184.98 567.68 -186 567 C-185.67 564.36 -185.34 561.72 -185 559 C-182.69 559 -180.38 559 -178 559 C-178.66 557.68 -179.32 556.36 -180 555 C-179.01 555 -178.02 555 -177 555 C-177.66 553.35 -178.32 551.7 -179 550 C-178.34 550 -177.68 550 -177 550 C-177.33 548.68 -177.66 547.36 -178 546 C-177.01 546 -176.02 546 -175 546 C-175 544.35 -175 542.7 -175 541 C-173.68 541 -172.36 541 -171 541 C-171.10699219 540.443125 -171.21398437 539.88625 -171.32421875 539.3125 C-172.27857168 533.2374792 -171.54064686 529.58942309 -169 524 C-168.34 524 -167.68 524 -167 524 C-167 523.34 -167 522.68 -167 522 C-167.66 522 -168.32 522 -169 522 C-168 519 -168 519 -165 517.0625 C-161.88835952 515.33756036 -161.88835952 515.33756036 -161.125 512.75 C-161.08375 512.1725 -161.0425 511.595 -161 511 C-160.01 511 -159.02 511 -158 511 C-158.33 509.02 -158.66 507.04 -159 505 C-157.68 504.01 -156.36 503.02 -155 502 C-151.68557793 506.46726453 -151.33990833 510.62007164 -151 516 C-150.01 516.33 -149.02 516.66 -148 517 C-148.33 518.32 -148.66 519.64 -149 521 C-144.63370257 519.60154175 -142.26036105 517.55565223 -139.125 514.25 C-129.71475144 504.56010066 -129.71475144 504.56010066 -124.59375 501.6171875 C-121.77666602 499.86075261 -119.649597 497.91546863 -117.3125 495.5625 C-116.54550781 494.80066406 -115.77851563 494.03882813 -114.98828125 493.25390625 C-113.18872885 491.21394213 -112.05870372 489.48540605 -111 487 C-110.34 487 -109.68 487 -109 487 C-108.67 486.01 -108.34 485.02 -108 484 C-107.01 484 -106.02 484 -105 484 C-104.71125 483.38125 -104.4225 482.7625 -104.125 482.125 C-103 480 -103 480 -101 478 C-100.01 478 -99.02 478 -98 478 C-98 477.34 -98 476.68 -98 476 C-96.9275 475.4225 -95.855 474.845 -94.75 474.25 C-92.28162282 472.86433152 -90.79369259 471.7819036 -88.8125 469.6875 C-87 468 -87 468 -85.125 468 C-78.23580451 471.24197435 -72.16355127 476.4588768 -67 482 C-67 482.99 -67 483.98 -67 485 C-65.6696875 485.37125 -65.6696875 485.37125 -64.3125 485.75 C-56.99268796 488.51219322 -52.06057701 494.76625099 -47.0625 500.5625 C-43.95654699 504.09868938 -41.06967796 506.65993517 -37 509 C-35.8553125 507.453125 -35.8553125 507.453125 -34.6875 505.875 C-34.25824219 505.29492188 -33.82898438 504.71484375 -33.38671875 504.1171875 C-31.91097904 501.95867955 -31.91097904 501.95867955 -30.671875 499.296875 C-28.5638147 495.1398589 -26.08201101 491.29207448 -23.5625 487.375 C-18.05373969 478.73771332 -12.74161388 469.99442332 -7.49609375 461.1953125 C-7.05894043 460.46473633 -6.62178711 459.73416016 -6.17138672 458.98144531 C-5.18443711 457.31198241 -4.23083859 455.62286819 -3.28515625 453.9296875 C-2.86105469 453.29289062 -2.43695313 452.65609375 -2 452 C-1.34 452 -0.68 452 0 452 C0 302.84 0 153.68 0 0 Z " fill="#78498B" transform="translate(325,0)"/>
<path d="M0 0 C0.33 0 0.66 0 1 0 C1 149.16 1 298.32 1 452 C0.34 452 -0.32 452 -1 452 C-1.26482178 452.7122876 -1.52964355 453.4245752 -1.80249023 454.15844727 C-3.0451312 457.10709113 -4.51124795 459.72361367 -6.16015625 462.46484375 C-6.7847876 463.50568115 -7.40941895 464.54651855 -8.05297852 465.61889648 C-9.04769165 467.26160522 -9.04769165 467.26160522 -10.0625 468.9375 C-11.07751587 470.62178101 -11.07751587 470.62178101 -12.11303711 472.34008789 C-16.3457695 479.3393451 -20.66210318 486.26922441 -25.140625 493.11328125 C-27.41690652 496.64725614 -29.53668998 500.25976074 -31.61328125 503.9140625 C-33.16899318 506.25420382 -34.95933019 508.07681011 -37 510 C-46.8759768 501.37050571 -46.8759768 501.37050571 -49.9375 497.5625 C-51.92062468 494.83597963 -51.92062468 494.83597963 -55 493 C-55 492.34 -55 491.68 -55 491 C-55.7734375 490.62875 -55.7734375 490.62875 -56.5625 490.25 C-57.366875 489.8375 -58.17125 489.425 -59 489 C-60.175625 488.401875 -61.35125 487.80375 -62.5625 487.1875 C-65.96630304 485.45148464 -67.07267133 483.24119684 -69 480 C-71.06450613 477.83202904 -71.06450613 477.83202904 -73.375 475.875 C-74.12523437 475.21242188 -74.87546875 474.54984375 -75.6484375 473.8671875 C-79.87891902 470.21286221 -79.87891902 470.21286221 -85.08984375 469.12109375 C-88.00724039 470.46345417 -90.00494084 472.53474356 -92.31640625 474.72265625 C-94 476 -94 476 -97 476 C-97 476.66 -97 477.32 -97 478 C-98.66279327 479.0064275 -100.32983484 480.00585407 -102 481 C-102.66 481.99 -103.32 482.98 -104 484 C-104.99 484.33 -105.98 484.66 -107 485 C-107.8971875 486.2375 -107.8971875 486.2375 -108.8125 487.5 C-111.47594217 490.54393391 -113.05278869 490.73087196 -117 491 C-116.0409375 489.39125 -116.0409375 489.39125 -115.0625 487.75 C-113.8315045 485.62373504 -113.00696988 484.02942837 -112.4375 481.625 C-112.2209375 480.820625 -112.2209375 480.820625 -112 480 C-111.01 479.67 -110.02 479.34 -109 479 C-107.27306267 476.80096099 -107.27306267 476.80096099 -105.5625 474 C-102.16202214 468.73959225 -98.63423063 463.60159397 -95 458.5 C-90.87695062 452.69386387 -86.85011249 446.84023803 -82.9296875 440.89453125 C-80.80804205 437.71206308 -78.62795626 434.57270556 -76.4375 431.4375 C-73.60465427 427.37806127 -70.90599852 423.27836323 -68.3125 419.0625 C-65.60199409 414.72946386 -62.6838049 411.51635923 -59 408 C-57.10677768 405.23298276 -55.76931493 402.49426735 -54.375 399.4375 C-51.91769668 394.37834611 -48.39800058 390.12153265 -44.92578125 385.734375 C-42.92482108 383.24521514 -42.92482108 383.24521514 -42.48046875 380.890625 C-41.78637451 378.15939239 -39.99126241 376.97000338 -38 375 C-36.19366012 372.17801996 -34.49562934 369.32744945 -32.82421875 366.42578125 C-31.93288695 364.91973787 -30.97171791 363.45547358 -30 362 C-29.34 362 -28.68 362 -28 362 C-27.731875 361.05125 -27.46375 360.1025 -27.1875 359.125 C-26 356 -26 356 -23 354 C-21.66761685 351.92286143 -21.66761685 351.92286143 -20.5 349.5625 C-18.96889321 346.58371211 -17.60344513 344.15338148 -15 342 C-14.34 342 -13.68 342 -13 342 C-12.7525 341.2575 -12.505 340.515 -12.25 339.75 C-10.90852699 336.79875938 -9.39094474 335.15185026 -7 333 C-3.83884224 334.36983503 -3.0072908 334.9890638 -1 338 C-0.67 226.46 -0.34 114.92 0 0 Z " fill="#B67A90" transform="translate(324,0)"/>
<path d="M0 0 C0.495 0.99 0.495 0.99 1 2 C0.34 2 -0.32 2 -1 2 C-0.690625 2.763125 -0.38125 3.52625 -0.0625 4.3125 C0.67893593 6.18789677 1.36228217 8.08684652 2 10 C3.98 9.67 5.96 9.34 8 9 C7.67 9.66 7.34 10.32 7 11 C7.89428711 11.297854 8.78857422 11.59570801 9.70996094 11.90258789 C15.8136276 13.93622224 21.91685928 15.97109023 28.01731873 18.014328 C43.30617776 23.13481919 58.59412567 28.23964509 74 33 C71.60184779 35.81906247 69.51792244 36.68751538 65.984375 37.68359375 C64.98688232 37.96952393 63.98938965 38.2554541 62.96166992 38.55004883 C61.90181885 38.84290771 60.84196777 39.1357666 59.75 39.4375 C58.67274658 39.74389404 57.59549316 40.05028809 56.4855957 40.3659668 C49.26154156 42.40967415 42.01433455 44.35687239 34.73046875 46.17578125 C31.82023627 46.90997396 31.82023627 46.90997396 29 49 C27.02734375 49.34375 27.02734375 49.34375 24.9375 49.5 C21.00011598 49.59161885 21.00011598 49.59161885 19 52 C21.97 52.66 24.94 53.32 28 54 C28 54.66 28 55.32 28 56 C28.82242188 56.17015625 29.64484375 56.3403125 30.4921875 56.515625 C36.64471258 57.8512771 42.33002276 59.40038295 48.10546875 61.890625 C52.75949648 63.67435493 57.56660431 64.95124513 62.37597656 66.24951172 C64.26721547 66.77685174 66.13632363 67.38227638 68 68 C68.33 68.66 68.66 69.32 69 70 C65.07071564 71.85873821 61.13799181 73.70992725 57.2019043 75.55419922 C55.86336742 76.18266751 54.52579269 76.81318926 53.18920898 77.44580078 C51.26795662 78.35470368 49.34336622 79.2561678 47.41796875 80.15625 C45.68196411 80.97319336 45.68196411 80.97319336 43.91088867 81.80664062 C41 83 41 83 38 83 C38 83.66 38 84.32 38 85 C36.92878906 85.48210937 35.85757813 85.96421875 34.75390625 86.4609375 C33.35661896 87.09862566 31.95949176 87.73666469 30.5625 88.375 C29.85544922 88.69210937 29.14839844 89.00921875 28.41992188 89.3359375 C24.52943438 90.8881687 24.52943438 90.8881687 22 94 C22.87760986 94.12528076 23.75521973 94.25056152 24.65942383 94.37963867 C27.79230725 94.96143044 30.48072281 95.78848831 33.44921875 96.92578125 C34.46306641 97.31056641 35.47691406 97.69535156 36.52148438 98.09179688 C37.56626953 98.49462891 38.61105469 98.89746094 39.6875 99.3125 C41.75370081 100.10079911 43.82010612 100.88856241 45.88671875 101.67578125 C46.89395996 102.06072754 47.90120117 102.44567383 48.93896484 102.84228516 C53.60896454 104.60852686 58.30220667 106.30930585 63 108 C57.38201624 113.61798376 47.49910648 116.50029784 40 119 C39.01 119 38.02 119 37 119 C37 119.66 37 120.32 37 121 C35.89140625 121.38671875 34.7828125 121.7734375 33.640625 122.171875 C32.17687088 122.6973252 30.71334081 123.22339985 29.25 123.75 C28.52039063 124.00265625 27.79078125 124.2553125 27.0390625 124.515625 C22.82243845 126.04894284 19.93692468 127.44477539 17 131 C15.79557292 129.4375 14.59114583 127.875 13.38671875 126.3125 C11.95508863 124.65629795 11.95508863 124.65629795 9 125 C7.37465509 127.30846089 5.92087298 129.57091682 4.5 132 C3.07912702 134.42908318 1.62534491 136.69153911 0 139 C-0.99 139 -1.98 139 -3 139 C-5.26260884 133.99445194 -7.42998241 128.96352622 -9.5 123.875 C-11.08460725 120.03425987 -12.80723654 116.52478827 -14.96875 112.96875 C-16.9461573 109.1936997 -18.28622642 105.13562303 -19.7734375 101.1484375 C-21.03488254 97.91046074 -22.50052003 94.88421261 -24.10546875 91.80859375 C-25.31931029 89.35440759 -26.22898118 86.82596278 -27.16015625 84.25390625 C-29.68582189 77.47572452 -32.57173542 70.86931519 -35.75 64.375 C-38.06872684 59.35838343 -39.15975406 54.5457481 -39 49 C-38.505 48.505 -38.505 48.505 -38 48 C-38.99 47.34 -39.98 46.68 -41 46 C-34.68369407 44.25837153 -28.36352045 42.56086351 -22 41 C-23.36983503 37.83884224 -23.9890638 37.0072908 -27 35 C-27 34.34 -27 33.68 -27 33 C-28.03125 32.773125 -29.0625 32.54625 -30.125 32.3125 C-34.36699376 31.12131387 -36.73161521 28.90523092 -40 26 C-42.21587348 24.72147713 -42.21587348 24.72147713 -44 24 C-44 23.34 -44 22.68 -44 22 C-44.66 22 -45.32 22 -46 22 C-46 21.34 -46 20.68 -46 20 C-47.32 19.67 -48.64 19.34 -50 19 C-49.8125 17.1875 -49.8125 17.1875 -49 15 C-44.79224546 11.84827724 -40.3469331 10.94252186 -35.3125 9.875 C-30.01580053 8.86039677 -30.01580053 8.86039677 -25 7 C-23.29297265 6.93003986 -21.58331997 6.91559846 -19.875 6.9375 C-18.96492188 6.94652344 -18.05484375 6.95554687 -17.1171875 6.96484375 C-16.06917969 6.98224609 -16.06917969 6.98224609 -15 7 C-15 6.01 -15 5.02 -15 4 C-10.05 2.68 -5.1 1.36 0 0 Z " fill="#AEC6F7" transform="translate(100,338)"/>
<path d="M0 0 C3.84232783 1.28077594 4.00882976 2.55374381 6 6 C6.87875249 7.07666972 7.77525319 8.1390586 8.6875 9.1875 C11 12 11 12 11 14 C11.56589844 14.21140625 12.13179687 14.4228125 12.71484375 14.640625 C15.83061948 16.4941121 17.40777441 18.83916807 19.5625 21.75 C20.43513034 22.91876659 21.30887089 24.08670491 22.18359375 25.25390625 C22.63847168 25.86379395 23.09334961 26.47368164 23.56201172 27.10205078 C25.04526114 29.05973855 26.56387296 30.98403586 28.09765625 32.90234375 C28.85550415 33.85125488 28.85550415 33.85125488 29.62866211 34.81933594 C30.61465683 36.05034125 31.60368483 37.27892404 32.59594727 38.50488281 C36 42.77919546 36 42.77919546 36 45 C36.66 45 37.32 45 38 45 C39.3671875 46.609375 39.3671875 46.609375 40.875 48.75 C42.52533606 51.03569546 44.03476408 53.03371063 46.0625 55 C47.91474029 56.91198998 49.07563086 58.6663083 50.4375 60.9375 C52.57648788 64.48285605 55.02771026 67.1020175 58 70 C58.83191103 71.15290564 59.64361559 72.32058705 60.4375 73.5 C62.15257806 76.01000313 63.84859258 77.82483314 66.25 79.6875 C69 82 69 82 69.875 84.3125 C69.91625 84.869375 69.9575 85.42625 70 86 C70.66 86 71.32 86 72 86 C72.556875 87.051875 73.11375 88.10375 73.6875 89.1875 C75.20984238 91.88843004 76.49559899 93.49559899 78.75 95.75 C79.4925 96.4925 80.235 97.235 81 98 C81 98.99 81 99.98 81 101 C79.0636296 101.50435694 77.12585854 102.00333874 75.1875 102.5 C74.10855469 102.7784375 73.02960938 103.056875 71.91796875 103.34375 C69 104 69 104 66 104 C66 104.99 66 105.98 66 107 C65.07380859 107.05607422 65.07380859 107.05607422 64.12890625 107.11328125 C58.90650003 107.51867351 54.40597801 108.3634733 49.50390625 110.1875 C45.37392195 111.52765091 41.09085907 112.20374839 36.8203125 112.9609375 C33.31454449 114.25253624 32.54658138 115.6797169 31 119 C32.32 119.33 33.64 119.66 35 120 C35 120.66 35 121.32 35 122 C35.66 122 36.32 122 37 122 C37 122.66 37 123.32 37 124 C37.969375 124.268125 38.93875 124.53625 39.9375 124.8125 C41.4534375 125.4003125 41.4534375 125.4003125 43 126 C43.33 126.99 43.66 127.98 44 129 C46.84979639 130.11680706 46.84979639 130.11680706 50 131 C53.23388859 132.34798096 55.04374269 133.91732057 57.25 136.625 C57.77078125 137.25664062 58.2915625 137.88828125 58.828125 138.5390625 C59.21484375 139.02117187 59.6015625 139.50328125 60 140 C57.3079217 143.68226803 53.53583507 143.96586572 49.3125 144.6875 C48.2596582 144.88182617 48.2596582 144.88182617 47.18554688 145.08007812 C45.45892577 145.39721261 43.72968365 145.70001797 42 146 C42.99 146.99 42.99 146.99 44 148 C43.67 148.33 43.34 148.66 43 149 C42.92820036 150.51928038 42.91607993 152.04167482 42.9375 153.5625 C42.94652344 154.38878906 42.95554688 155.21507812 42.96484375 156.06640625 C42.97644531 156.70449219 42.98804688 157.34257812 43 158 C42.34 157.67 41.68 157.34 41 157 C40.1484375 154.27734375 40.1484375 154.27734375 39.375 150.9375 C39.11460938 149.83277344 38.85421875 148.72804688 38.5859375 147.58984375 C38.29589844 146.30787109 38.29589844 146.30787109 38 145 C37.34 145 36.68 145 36 145 C35.69707031 144.24976563 35.39414062 143.49953125 35.08203125 142.7265625 C32.65310516 136.79250923 30.0621339 131.03407511 27.1328125 125.33203125 C25.50045959 121.97163578 24.27599355 118.50898227 23 115 C22.67 114.67 22.34 114.34 22 114 C18.27771864 120.21060095 14.69080896 126.2729776 12 133 C11.01462479 135.0072458 10.01936943 137.00980253 9 139 C8.34 139 7.68 139 7 139 C6.67 140.65 6.34 142.3 6 144 C4.68 144.33 3.36 144.66 2 145 C2 146.32 2 147.64 2 149 C1.34 149 0.68 149 0 149 C-0.36967896 148.21520264 -0.36967896 148.21520264 -0.74682617 147.41455078 C-6.73961803 134.63924103 -6.73961803 134.63924103 -13.02734375 122.0078125 C-13.34832031 121.34523438 -13.66929688 120.68265625 -14 120 C-14.51463051 118.99948608 -14.51463051 118.99948608 -15.03965759 117.97875977 C-16.40239777 113.7518553 -16.31964474 109.74835924 -16.33813477 105.33203125 C-16.34967087 104.36397552 -16.36120697 103.3959198 -16.37309265 102.39852905 C-16.40734389 99.20316952 -16.42588603 96.00800257 -16.44140625 92.8125 C-16.44830915 91.72006989 -16.45521206 90.62763977 -16.46232414 89.50210571 C-16.49812658 83.72568621 -16.52168694 77.94936408 -16.53540039 72.17285156 C-16.55198441 66.2036227 -16.61047267 60.23557092 -16.67854404 54.26673889 C-16.72326989 49.67709566 -16.73689017 45.08773679 -16.74201775 40.49789429 C-16.74992176 38.29699394 -16.76959871 36.09610333 -16.80124092 33.89541626 C-16.84257739 30.81865938 -16.83987612 27.74490652 -16.82641602 24.66796875 C-16.84844086 23.7587265 -16.8704657 22.84948425 -16.89315796 21.91268921 C-16.80297321 15.85089504 -16.80297321 15.85089504 -14.4616375 13.36982727 C-12.69268648 12.10981878 -10.88924832 11.06577964 -9 10 C-6.87211562 7.91353947 -6.87211562 7.91353947 -5.1875 5.8125 C-3.5003839 3.79336563 -1.86188816 1.86188816 0 0 Z " fill="#CFB8E1" transform="translate(19,238)"/>
<path d="M0 0 C0 33.99 0 67.98 0 103 C-1.65 101.35 -3.3 99.7 -5 98 C-9.24888689 99.5174596 -10.61497237 102.3140482 -13 106 C-13.804375 106.78375 -14.60875 107.5675 -15.4375 108.375 C-18.13404413 111.1373135 -19.8895905 113.89683165 -21.7890625 117.23046875 C-23 119 -23 119 -26 121 C-27.20450304 123.55183404 -27.20450304 123.55183404 -28 126 C-28.66 126 -29.32 126 -30 126 C-30.26167969 126.70769531 -30.52335937 127.41539062 -30.79296875 128.14453125 C-32.07674538 131.18155622 -33.58498184 133.87980419 -35.3125 136.6875 C-35.88613281 137.64011719 -36.45976562 138.59273437 -37.05078125 139.57421875 C-39.20876784 142.25980928 -40.73695871 143.03962124 -44 144 C-46.5625 141.75 -46.5625 141.75 -49 139 C-48.66759684 136.04514014 -47.46987583 133.83810699 -45.93359375 131.328125 C-45.53076172 130.66425781 -45.12792969 130.00039063 -44.71289062 129.31640625 C-44.29201172 128.63449219 -43.87113281 127.95257813 -43.4375 127.25 C-43.01275391 126.55261719 -42.58800781 125.85523438 -42.15039062 125.13671875 C-41.10489914 123.42164283 -40.05306649 121.71043527 -39 120 C-40.39798828 119.82984375 -40.39798828 119.82984375 -41.82421875 119.65625 C-46.89353849 118.93114962 -51.83875197 117.70138841 -56.8125 116.5 C-57.76576172 116.27441406 -58.71902344 116.04882812 -59.70117188 115.81640625 C-66.73892432 114.13053784 -66.73892432 114.13053784 -69 113 C-69.27352493 108.71477612 -68.99438148 105.60364427 -67.5 101.5625 C-65.03296105 94.4950889 -65.2289874 89.97005139 -68.4375 83.25 C-71.58855674 77.80177 -75.01692803 75.66196444 -81 74 C-80.278125 73.29875 -79.55625 72.5975 -78.8125 71.875 C-76.92418317 70.00250705 -75.34707345 68.17060681 -73.6875 66.0625 C-71.18830949 62.99139442 -68.27004595 60.88008016 -65.0625 58.58984375 C-62.2454963 56.4184034 -59.86448602 53.91951754 -57.4453125 51.3203125 C-56 50 -56 50 -54 50 C-54 49.34 -54 48.68 -54 48 C-52.35 47.34 -50.7 46.68 -49 46 C-49 45.34 -49 44.68 -49 44 C-47.125 41.875 -47.125 41.875 -45 40 C-44.34 40 -43.68 40 -43 40 C-43 39.34 -43 38.68 -43 38 C-41.35546875 36.37890625 -41.35546875 36.37890625 -39.1875 34.5625 C-36.17536735 32.02660668 -36.17536735 32.02660668 -33.36328125 29.27734375 C-32 28 -32 28 -30 28 C-29.505 26.515 -29.505 26.515 -29 25 C-27.44140625 23.39453125 -27.44140625 23.39453125 -25.5625 21.8125 C-24.94503906 21.28269531 -24.32757813 20.75289063 -23.69140625 20.20703125 C-22 19 -22 19 -20 19 C-19.505 17.515 -19.505 17.515 -19 16 C-18.34 16 -17.68 16 -17 16 C-16.34 14.68 -15.68 13.36 -15 12 C-14.34 12 -13.68 12 -13 12 C-12.67 11.01 -12.34 10.02 -12 9 C-11.34 9 -10.68 9 -10 9 C-10 8.34 -10 7.68 -10 7 C-9.01 7 -8.02 7 -7 7 C-7 6.34 -7 5.68 -7 5 C-6.34 5 -5.68 5 -5 5 C-4.67 4.01 -4.34 3.02 -4 2 C-1 0 -1 0 0 0 Z " fill="#D2B3DE" transform="translate(324,236)"/>
<path d="M0 0 C3.11020134 2.54471018 4.00133026 5.15896252 5 9 C5.125 11.875 5.125 11.875 5 14 C5.99 14.33 6.98 14.66 8 15 C7.34 16.65 6.68 18.3 6 20 C7.98 20.66 9.96 21.32 12 22 C12 22.99 12 23.98 12 25 C11.01 25.33 10.02 25.66 9 26 C9.57584432 28.38564077 10.22227595 30.66682784 11 33 C10.34 33 9.68 33 9 33 C11.54664585 37.81033104 13.99027798 41.32442148 18 45 C17.34 45 16.68 45 16 45 C16 45.99 16 46.98 16 48 C16.66 48 17.32 48 18 48 C18 48.99 18 49.98 18 51 C17.01 51 16.02 51 15 51 C14.67 51.99 14.34 52.98 14 54 C15.65 54.33 17.3 54.66 19 55 C18.67 55.99 18.34 56.98 18 58 C16.68 58 15.36 58 14 58 C14.66 59.65 15.32 61.3 16 63 C18.31 63 20.62 63 23 63 C23 63.66 23 64.32 23 65 C21.7934375 65.680625 21.7934375 65.680625 20.5625 66.375 C17.84763807 67.73420995 17.84763807 67.73420995 17.1875 70.1875 C17.125625 70.785625 17.06375 71.38375 17 72 C17.99 72 18.98 72 20 72 C20 72.66 20 73.32 20 74 C19.01 74.495 19.01 74.495 18 75 C18 76.32 18 77.64 18 79 C20.97 79.495 20.97 79.495 24 80 C24 80.99 24 81.98 24 83 C23.34 83.66 22.68 84.32 22 85 C23.65 85.33 25.3 85.66 27 86 C26.95875 87.093125 26.9175 88.18625 26.875 89.3125 C26.67925334 93.08892229 26.67925334 93.08892229 29 96 C31.56282742 96.72965366 31.56282742 96.72965366 34 97 C33.505 98.98 33.505 98.98 33 101 C32.34 101 31.68 101 31 101 C31 101.99 31 102.98 31 104 C32.98 104.495 32.98 104.495 35 105 C35 105.66 35 106.32 35 107 C12.23 107 -10.54 107 -34 107 C-34.33 105.68 -34.66 104.36 -35 103 C-32.525 102.505 -32.525 102.505 -30 102 C-30 100.68 -30 99.36 -30 98 C-32.31 98 -34.62 98 -37 98 C-36.67 96.35 -36.34 94.7 -36 93 C-35.34 93 -34.68 93 -34 93 C-36.10778194 89.31138161 -38.29797894 86.37752632 -41 83 C-36.05 83 -31.1 83 -26 83 C-26 80.36 -26 77.72 -26 75 C-27.98 75 -29.96 75 -32 75 C-32.33 74.34 -32.66 73.68 -33 73 C-31.865625 72.71125 -30.73125 72.4225 -29.5625 72.125 C-28.386875 71.75375 -27.21125 71.3825 -26 71 C-25.505 70.01 -25.505 70.01 -25 69 C-25.99 68.67 -26.98 68.34 -28 68 C-27.505 67.505 -27.505 67.505 -27 67 C-27.99 66.34 -28.98 65.68 -30 65 C-29.67 62.36 -29.34 59.72 -29 57 C-26.69 57 -24.38 57 -22 57 C-22.66 55.68 -23.32 54.36 -24 53 C-23.01 53 -22.02 53 -21 53 C-21.66 51.35 -22.32 49.7 -23 48 C-22.34 48 -21.68 48 -21 48 C-21.33 46.68 -21.66 45.36 -22 44 C-21.01 44 -20.02 44 -19 44 C-19 42.35 -19 40.7 -19 39 C-17.68 39 -16.36 39 -15 39 C-15.10699219 38.443125 -15.21398437 37.88625 -15.32421875 37.3125 C-16.27857168 31.2374792 -15.54064686 27.58942309 -13 22 C-12.34 22 -11.68 22 -11 22 C-11 21.34 -11 20.68 -11 20 C-11.66 20 -12.32 20 -13 20 C-12 17 -12 17 -9 15.0625 C-5.88835952 13.33756036 -5.88835952 13.33756036 -5.125 10.75 C-5.08375 10.1725 -5.0425 9.595 -5 9 C-4.01 9 -3.02 9 -2 9 C-2.226875 8.071875 -2.45375 7.14375 -2.6875 6.1875 C-3 3 -3 3 -1.5625 1.125 C-1.046875 0.75375 -0.53125 0.3825 0 0 Z " fill="#2E021A" transform="translate(169,502)"/>
<path d="M0 0 C0.66 0 1.32 0 2 0 C2.33 181.17 2.66 362.34 3 549 C3.66 546.69 4.32 544.38 5 542 C5.66 541.34 6.32 540.68 7 540 C5.515 538.515 5.515 538.515 4 537 C4.9075 536.62875 5.815 536.2575 6.75 535.875 C10.46072141 533.73419919 11.71517859 531.54541254 14 528 C14.99 528 15.98 528 17 528 C17 527.34 17 526.68 17 526 C16.34 526 15.68 526 15 526 C15.25 523.625 15.25 523.625 16 521 C18.046875 519.8359375 18.046875 519.8359375 20 519 C23.05802866 525.27935012 26 531.88450041 26 539 C28.97 540.485 28.97 540.485 32 542 C32 542.66 32 543.32 32 544 C30.35 544.33 28.7 544.66 27 545 C27.57584432 547.38564077 28.22227595 549.66682784 29 552 C28.87625 552.763125 28.7525 553.52625 28.625 554.3125 C28.71335947 557.04262535 28.71335947 557.04262535 30.5546875 558.41015625 C31.19664063 558.89355469 31.83859375 559.37695312 32.5 559.875 C34.44140625 561.375 34.44140625 561.375 36 563 C36.4375 566.875 36.4375 566.875 36 570 C34.68 570.33 33.36 570.66 32 571 C32 571.99 32 572.98 32 574 C34.31 574.33 36.62 574.66 39 575 C38.67 575.66 38.34 576.32 38 577 C36.02 577 34.04 577 32 577 C33.03712176 579.08261145 33.03712176 579.08261145 35 581 C38.60465748 581.81314911 38.60465748 581.81314911 42 582 C38.25 585.875 38.25 585.875 36 587 C35.34786708 589.02463255 35.34786708 589.02463255 35 591 C35.99 591 36.98 591 38 591 C38 591.66 38 592.32 38 593 C37.34 593.33 36.68 593.66 36 594 C36.66868314 597.11332248 36.66868314 597.11332248 39.0625 598.1875 C39.701875 598.455625 40.34125 598.72375 41 599 C40.67 600.98 40.34 602.96 40 605 C41.65 605 43.3 605 45 605 C44.67 606.32 44.34 607.64 44 609 C29.48 609 14.96 609 0 609 C0 408.03 0 207.06 0 0 Z " fill="#2E021A" transform="translate(0,0)"/>
<path d="M0 0 C0.33 0 0.66 0 1 0 C1 200.97 1 401.94 1 609 C-6.26 609 -13.52 609 -21 609 C-21.495 606.03 -21.495 606.03 -22 603 C-20.35 602.34 -18.7 601.68 -17 601 C-17 599.02 -17 597.04 -17 595 C-19.31 595 -21.62 595 -24 595 C-23.49202991 590.6822542 -22.80317221 586.96697886 -21 583 C-21.66 583 -22.32 583 -23 583 C-23 582.34 -23 581.68 -23 581 C-23.66 581 -24.32 581 -25 581 C-29 574.25 -29 574.25 -29 572 C-23.72 572 -18.44 572 -13 572 C-13 568.04 -13 564.08 -13 560 C-14.98 560 -16.96 560 -19 560 C-19.495 558.515 -19.495 558.515 -20 557 C-17.69 556.67 -15.38 556.34 -13 556 C-12.505 553.525 -12.505 553.525 -12 551 C-13.32 550.67 -14.64 550.34 -16 550 C-15.01 549.67 -14.02 549.34 -13 549 C-13 548.34 -13 547.68 -13 547 C-14.65 547 -16.3 547 -18 547 C-17.67 546.01 -17.34 545.02 -17 544 C-16.34 543.67 -15.68 543.34 -15 543 C-14.91113816 539.80097361 -15.08941469 537.07322544 -16 534 C-13.69 533.34 -11.38 532.68 -9 532 C-9 530.35 -9 528.7 -9 527 C-8.34 527 -7.68 527 -7 527 C-7.7425 525.6078125 -7.7425 525.6078125 -8.5 524.1875 C-10 521 -10 521 -10 518 C-9.34 518 -8.68 518 -8 518 C-8.495 515.525 -8.495 515.525 -9 513 C-8.01 513 -7.02 513 -6 513 C-6 510.69 -6 508.38 -6 506 C-4.35 505.67 -2.7 505.34 -1 505 C-1.99 503.515 -1.99 503.515 -3 502 C-3.19850603 498.29455413 -3.17664871 495.52994613 -2 492 C-1.84719087 489.51805841 -1.74677784 487.05974895 -1.69081211 484.57538605 C-1.67055213 483.81841311 -1.65029214 483.06144017 -1.62941822 482.28152865 C-1.56405245 479.75098238 -1.50662207 477.22033881 -1.45033264 474.6895752 C-1.41900519 473.36319978 -1.41900519 473.36319978 -1.38704485 472.0100289 C-0.89711141 451.05587411 -0.82649893 430.10291962 -0.79939139 409.14394379 C-0.79120466 403.62584206 -0.77757342 398.10775302 -0.76467896 392.58966064 C-0.74316835 383.08052479 -0.72493443 373.57138749 -0.70907402 364.0622406 C-0.68613896 350.31444307 -0.65803218 336.56665973 -0.62875474 322.81887442 C-0.58136406 300.50165186 -0.53801684 278.18442315 -0.49731445 255.8671875 C-0.45781959 234.21744327 -0.41636331 212.56770421 -0.37231445 190.91796875 C-0.37095192 190.24791652 -0.36958939 189.5778643 -0.36818558 188.88750746 C-0.35449749 182.15715541 -0.34077021 175.42680345 -0.32701423 168.69645154 C-0.21208665 112.46431197 -0.10372928 56.23216127 0 0 Z " fill="#2D011B" transform="translate(325,0)"/>
<path d="M0 0 C2 1 2 1 3.125 3.6875 C3.98889074 6.9579435 4.16013991 9.63706182 4 13 C4.66 13 5.32 13 6 13 C5.9175 13.763125 5.835 14.52625 5.75 15.3125 C5.70833333 18.14583333 5.70833333 18.14583333 8 19.8125 C8.66 20.204375 9.32 20.59625 10 21 C9.505 22.485 9.505 22.485 9 24 C8.01 24 7.02 24 6 24 C6.28875 24.639375 6.5775 25.27875 6.875 25.9375 C7.83539351 28.55190455 8.37251625 30.84370401 8.875 33.5625 C9.68747285 37.50692467 10.85162879 39.37635732 14 42 C14 42.66 14 43.32 14 44 C13.34 44 12.68 44 12 44 C12.66 45.65 13.32 47.3 14 49 C13.01 49.66 12.02 50.32 11 51 C10.67 51.99 10.34 52.98 10 54 C11.32 54 12.64 54 14 54 C14 54.66 14 55.32 14 56 C13.01 56 12.02 56 11 56 C11.6954344 59.00384054 11.6954344 59.00384054 13 62 C15.03243548 62.96877057 15.03243548 62.96877057 17 63 C16.2884375 63.8971875 16.2884375 63.8971875 15.5625 64.8125 C13.83534256 67.00382924 13.83534256 67.00382924 13 70 C13.66 70 14.32 70 15 70 C14.979375 70.928125 14.95875 71.85625 14.9375 72.8125 C14.84230396 76.02286011 14.84230396 76.02286011 16 79 C4.45 79 -7.1 79 -19 79 C-19 77.35 -19 75.7 -19 74 C-20.65 73.67 -22.3 73.34 -24 73 C-23.505 72.01 -23.505 72.01 -23 71 C-20.9375 70.375 -20.9375 70.375 -19 70 C-19 68.02 -19 66.04 -19 64 C-19.66 64 -20.32 64 -21 64 C-21 61.36 -21 58.72 -21 56 C-19.02 55.505 -19.02 55.505 -17 55 C-16.87625 53.865625 -16.7525 52.73125 -16.625 51.5625 C-16.05770917 46.96662215 -15.07315212 42.50098751 -14 38 C-13.01 38 -12.02 38 -11 38 C-11.16048828 37.1646875 -11.16048828 37.1646875 -11.32421875 36.3125 C-12.41029697 29.39896983 -11.12701689 25.25403378 -8 19 C-8.66 18.67 -9.32 18.34 -10 18 C-10 17.34 -10 16.68 -10 16 C-9.38125 15.95875 -8.7625 15.9175 -8.125 15.875 C-5.72267161 15.17311355 -5.72267161 15.17311355 -4.875 12.4375 C-4.40275479 10.58225098 -3.93679367 8.72510264 -3.5078125 6.859375 C-3.04865243 4.89558269 -2.52785176 2.94645337 -2 1 C-1.34 0.67 -0.68 0.34 0 0 Z " fill="#25021D" transform="translate(255,530)"/>
<path d="M0 0 C33.66987988 3.74996292 33.66987988 3.74996292 41 8 C42.609375 10.78125 42.609375 10.78125 43 14 C41.2890625 16.859375 41.2890625 16.859375 38.625 19.75 C37.69050315 20.79476584 36.75692325 21.8403525 35.82421875 22.88671875 C35.35032715 23.40540527 34.87643555 23.9240918 34.38818359 24.45849609 C32.31782387 26.75752024 30.37543701 29.15155104 28.4375 31.5625 C27.79683594 32.34753906 27.15617187 33.13257813 26.49609375 33.94140625 C24.82427437 36.02397503 24.82427437 36.02397503 24 39 C24.90363281 38.98839844 25.80726563 38.97679687 26.73828125 38.96484375 C27.91777344 38.95582031 29.09726562 38.94679688 30.3125 38.9375 C32.07013672 38.92009766 32.07013672 38.92009766 33.86328125 38.90234375 C37 39 37 39 40 40 C41.37502199 40.01932762 42.75100887 39.99413404 44.125 39.9375 C48.96806743 39.86592757 53.33610642 40.76511565 58 42 C56.55049545 45.7910119 54.84827434 49.3874638 53 53 C52.34 53 51.68 53 51 53 C50.73832031 53.70769531 50.47664063 54.41539062 50.20703125 55.14453125 C48.92325462 58.18155622 47.41501816 60.87980419 45.6875 63.6875 C45.11386719 64.64011719 44.54023438 65.59273438 43.94921875 66.57421875 C41.79123216 69.25980928 40.26304129 70.03962124 37 71 C34.4375 68.75 34.4375 68.75 32 66 C32.33240316 63.04514014 33.53012417 60.83810699 35.06640625 58.328125 C35.46923828 57.66425781 35.87207031 57.00039063 36.28710938 56.31640625 C36.70798828 55.63449219 37.12886719 54.95257813 37.5625 54.25 C37.98724609 53.55261719 38.41199219 52.85523438 38.84960938 52.13671875 C39.89510086 50.42164283 40.94693351 48.71043527 42 47 C41.06800781 46.8865625 40.13601563 46.773125 39.17578125 46.65625 C34.10646151 45.93114962 29.16124803 44.70138841 24.1875 43.5 C23.23423828 43.27441406 22.28097656 43.04882812 21.29882812 42.81640625 C14.26107568 41.13053784 14.26107568 41.13053784 12 40 C11.72647507 35.71477612 12.00561852 32.60364427 13.5 28.5625 C15.96703895 21.4950889 15.7710126 16.97005139 12.5625 10.25 C9.41144326 4.80177 5.98307197 2.66196444 0 1 C0 0.67 0 0.34 0 0 Z " fill="#A4C1F5" transform="translate(243,309)"/>
<path d="M0 0 C0.66 0 1.32 0 2 0 C2.00173625 1.17284428 2.0034725 2.34568856 2.00526136 3.55407357 C2.08181875 55.2249167 2.15960201 106.89575784 2.2436676 158.56658936 C2.24493928 159.34844146 2.24621096 160.13029357 2.24752118 160.93583817 C2.27516333 177.92619204 2.30302633 194.91654555 2.33111694 211.90689869 C2.34489054 220.23855088 2.35861532 228.57020315 2.37231445 236.90185547 C2.37367854 237.73097013 2.37504262 238.56008479 2.37644804 239.41432413 C2.42066625 266.30486548 2.46165858 293.19541057 2.50098413 320.08595948 C2.54140169 347.71160446 2.58506156 375.33724245 2.63282111 402.96287576 C2.63956 406.86174286 2.6462617 410.76061003 2.65294075 414.65947723 C2.65425648 415.42685606 2.65557221 416.19423488 2.6569278 416.98486761 C2.6780408 429.35457438 2.69571973 441.72428381 2.71212531 454.09399762 C2.72867766 466.51941522 2.748822 478.94482284 2.77266841 491.37022862 C2.78549653 498.10676016 2.79657677 504.84328384 2.80341911 511.57982445 C2.80971065 517.73948797 2.82052507 523.8991259 2.8350333 530.0587754 C2.83948324 532.29436062 2.84223151 534.52994998 2.84316199 536.76553944 C2.84466265 539.79044556 2.85220478 542.81527673 2.8613348 545.840168 C2.86031213 546.72007166 2.85928946 547.59997533 2.85823581 548.50654274 C2.86191652 549.31107846 2.86559723 550.11561418 2.86938947 550.94452977 C2.87048134 551.63645982 2.8715732 552.32838987 2.87269815 553.0412875 C3.00827174 555.12727204 3.43434692 556.99134236 4 559 C3.34 559 2.68 559 2 559 C2 575.5 2 592 2 609 C1.34 609 0.68 609 0 609 C0 408.03 0 207.06 0 0 Z " fill="#313038" transform="translate(0,0)"/>
<path d="M0 0 C0.66 0 1.32 0 2 0 C2.10957031 0.70125 2.21914062 1.4025 2.33203125 2.125 C3.33112985 8.10334608 4.75189404 13.3797351 7 19 C7 19.66 7 20.32 7 21 C6.34 21 5.68 21 5 21 C5.44934887 23.12691797 5.90976473 25.25150039 6.375 27.375 C6.63023437 28.55835938 6.88546875 29.74171875 7.1484375 30.9609375 C7.75523965 34.08196967 7.75523965 34.08196967 10 36 C10.46376812 43.30434783 10.46376812 43.30434783 8 47 C8.99 46.34 9.98 45.68 11 45 C13.6875 45.375 13.6875 45.375 16 46 C16.33 47.98 16.66 49.96 17 52 C15.35 52.66 13.7 53.32 12 54 C13.32 54.66 14.64 55.32 16 56 C16 57.65 16 59.3 16 61 C6.43 61 -3.14 61 -13 61 C-13 59.35 -13 57.7 -13 56 C-13.66 55.67 -14.32 55.34 -15 55 C-14.625 52.5625 -14.625 52.5625 -14 50 C-13.01 49.505 -13.01 49.505 -12 49 C-11.56797133 46.28464093 -11.56797133 46.28464093 -11.4375 43.125 C-11.24113676 39.79884716 -11.05624392 37.16873175 -10 34 C-9.01 34 -8.02 34 -7 34 C-7.33 33.34 -7.66 32.68 -8 32 C-7.85392112 24.49379311 -6.9970169 17.82761572 -3.5 11.125 C-1.72904463 7.43550965 -0.89381774 3.98780223 0 0 Z " fill="#68396E" transform="translate(220,548)"/>
<path d="M0 0 C-2.50451792 5.40975872 -5.3781079 10.15361974 -8.8515625 14.9921875 C-11.59701862 18.83582607 -14.26669787 22.72927576 -16.9375 26.625 C-17.9049229 28.03387135 -18.87236885 29.44272687 -19.83984375 30.8515625 C-20.90912109 32.41003906 -20.90912109 32.41003906 -22 34 C-25.49584292 31.00867755 -28.98803218 28.01343599 -32.46484375 25 C-39.20958145 19.1655246 -46.00459364 13.57802462 -53.2578125 8.3828125 C-53.99773437 7.84398437 -54.73765625 7.30515625 -55.5 6.75 C-56.1703125 6.27046875 -56.840625 5.7909375 -57.53125 5.296875 C-58.0159375 4.86890625 -58.500625 4.4409375 -59 4 C-59 3.34 -59 2.68 -59 2 C-53.00859086 1.71060828 -47.01697911 1.42599484 -41.02514648 1.14550781 C-38.99351106 1.04976537 -36.96193312 0.95279387 -34.93041992 0.85449219 C-23.27752123 0.29152247 -11.6681187 -0.16575013 0 0 Z " fill="#ADC5F7" transform="translate(249,429)"/>
<path d="M0 0 C0.66 0 1.32 0 2 0 C5.44419134 9.41002278 5.44419134 9.41002278 5 14 C6.32 14.33 7.64 14.66 9 15 C9 15.66 9 16.32 9 17 C8.01 17 7.02 17 6 17 C6.2475 18.8871875 6.2475 18.8871875 6.5 20.8125 C6.82158241 23.26456585 7 25.51650694 7 28 C8.65 28.66 10.3 29.32 12 30 C11.05066101 33.35433109 10.10251165 36.69246505 9 40 C10.485 40.495 10.485 40.495 12 41 C11.34 41 10.68 41 10 41 C10.66868314 44.11332248 10.66868314 44.11332248 13.0625 45.1875 C13.701875 45.455625 14.34125 45.72375 15 46 C13.68 46.66 12.36 47.32 11 48 C11 48.66 11 49.32 11 50 C2.42 50 -6.16 50 -15 50 C-15.495 48.515 -15.495 48.515 -16 47 C-16.66 46.67 -17.32 46.34 -18 46 C-17.67 44.35 -17.34 42.7 -17 41 C-15.68 41 -14.36 41 -13 41 C-13 37.7 -13 34.4 -13 31 C-12.34 31 -11.68 31 -11 31 C-11 29.68 -11 28.36 -11 27 C-10.34 27 -9.68 27 -9 27 C-9.185625 26.113125 -9.37125 25.22625 -9.5625 24.3125 C-9.98042484 21.14821189 -9.80777742 19.05160358 -9 16 C-8.34 16 -7.68 16 -7 16 C-7.33 14.68 -7.66 13.36 -8 12 C-7.4225 11.690625 -6.845 11.38125 -6.25 11.0625 C-2.90814357 7.99913161 -1.64084784 4.16321499 0 0 Z " fill="#230420" transform="translate(93,559)"/>
<path d="M0 0 C0.33 0 0.66 0 1 0 C1 200.97 1 401.94 1 609 C0.34 609 -0.32 609 -1 609 C-1 575.01 -1 541.02 -1 506 C-1.99 506 -2.98 506 -4 506 C-4 508.31 -4 510.62 -4 513 C-4.66 513 -5.32 513 -6 513 C-6 510.69 -6 508.38 -6 506 C-4.35 505.67 -2.7 505.34 -1 505 C-1.99 503.515 -1.99 503.515 -3 502 C-3.19850603 498.29455413 -3.17664871 495.52994613 -2 492 C-1.84719087 489.51805841 -1.74677784 487.05974895 -1.69081211 484.57538605 C-1.67055213 483.81841311 -1.65029214 483.06144017 -1.62941822 482.28152865 C-1.56405245 479.75098238 -1.50662207 477.22033881 -1.45033264 474.6895752 C-1.42944767 473.80532492 -1.4085627 472.92107464 -1.38704485 472.0100289 C-0.89711141 451.05587411 -0.82649893 430.10291962 -0.79939139 409.14394379 C-0.79120466 403.62584206 -0.77757342 398.10775302 -0.76467896 392.58966064 C-0.74316835 383.08052479 -0.72493443 373.57138749 -0.70907402 364.0622406 C-0.68613896 350.31444307 -0.65803218 336.56665973 -0.62875474 322.81887442 C-0.58136406 300.50165186 -0.53801684 278.18442315 -0.49731445 255.8671875 C-0.45781959 234.21744327 -0.41636331 212.56770421 -0.37231445 190.91796875 C-0.37095192 190.24791652 -0.36958939 189.5778643 -0.36818558 188.88750746 C-0.35449749 182.15715541 -0.34077021 175.42680345 -0.32701423 168.69645154 C-0.21208665 112.46431197 -0.10372928 56.23216127 0 0 Z " fill="#35353A" transform="translate(325,0)"/>
<path d="M0 0 C0 3.43117767 -0.45419278 3.95627219 -2.5 6.5625 C-3.31597656 7.614375 -3.31597656 7.614375 -4.1484375 8.6875 C-5.43773563 10.29776265 -6.73525531 11.90146245 -8.0390625 13.5 C-11.8403758 18.16977814 -15.21217574 22.65667017 -18 28 C-18.495 27.01 -18.495 27.01 -19 26 C-19.54914063 25.86505127 -20.09828125 25.73010254 -20.6640625 25.59106445 C-25.82918507 24.28412865 -30.43990341 20.95298244 -35.04492188 18.30834961 C-36.98883372 17.19390165 -38.93931331 16.0916622 -40.890625 14.99023438 C-42.13583448 14.27937722 -43.38063985 13.56781161 -44.625 12.85546875 C-46.31496094 11.89096802 -46.31496094 11.89096802 -48.0390625 10.90698242 C-50.76369098 9.15219408 -52.82670496 7.38698029 -55 5 C-50.00650296 3.72550912 -44.99500937 3.77411804 -39.875 3.625 C-26.50147753 3.15504581 -13.27473549 1.63001546 0 0 Z " fill="#ADC5F7" transform="translate(269,400)"/>
<path d="M0 0 C2.29810993 2.29810993 2.90105349 4.03607844 4.0625 7.0625 C6.6149106 13.3973986 9.74204008 19.32947828 13.05297852 25.29907227 C13.43381592 25.99572998 13.81465332 26.6923877 14.20703125 27.41015625 C14.5522583 28.03027588 14.89748535 28.65039551 15.25317383 29.28930664 C16 31 16 31 16 34 C16.66 34 17.32 34 18 34 C18 32.68 18 31.36 18 30 C18.99 29.67 19.98 29.34 21 29 C19.82189288 32.9874395 18.4867766 35.71745488 16 39 C14.96898053 41.31979381 13.97063483 43.65429915 13 46 C10.28915663 51.85542169 10.28915663 51.85542169 8 53 C7.28975844 54.64856882 6.63054564 56.31933513 6 58 C5.14273021 59.77948425 4.2677278 61.55053724 3.375 63.3125 C2.92898437 64.19550781 2.48296875 65.07851563 2.0234375 65.98828125 C1.68570312 66.65214844 1.34796875 67.31601562 1 68 C0.67 68 0.34 68 0 68 C0 45.56 0 23.12 0 0 Z " fill="#D18E94" transform="translate(3,353)"/>
<path d="M0 0 C0.33 0 0.66 0 1 0 C1.00634791 1.55605013 1.00634791 1.55605013 1.01282406 3.14353561 C1.11593593 28.3641633 1.22467384 53.58476193 1.33933926 78.80533981 C1.39465939 91.00172717 1.44813943 103.19811744 1.49731445 115.39453125 C1.54017108 126.02270204 1.58645285 136.6508514 1.63687855 147.27898908 C1.66346753 152.90848698 1.68832036 158.53798067 1.70907402 164.16750336 C1.72865101 169.46318719 1.75279806 174.75883027 1.78049088 180.05447769 C1.78985566 182.00075923 1.797533 183.94704971 1.80341911 185.89334488 C1.81168997 188.54570166 1.8259695 191.1979598 1.84178162 193.85028076 C1.84324878 195.01176105 1.84324878 195.01176105 1.84474558 196.19670558 C1.87092063 199.5991392 1.93068508 202.74774657 3 206 C2.34 206 1.68 206 1 206 C1 222.5 1 239 1 256 C0.34 256 -0.32 256 -1 256 C-1.10300528 205.46006119 -0.82823199 154.92254597 -0.55461788 104.38350821 C-0.49287883 92.96770876 -0.43300698 81.55189972 -0.37324238 70.1360898 C-0.25080973 46.7573825 -0.12618818 23.37868732 0 0 Z " fill="#3D363C" transform="translate(1,353)"/>
<path d="M0 0 C0.99 0 1.98 0 3 0 C3 38.61 3 77.22 3 117 C2.34 117 1.68 117 1 117 C1 83.01 1 49.02 1 14 C0.01 14 -0.98 14 -2 14 C-2 16.31 -2 18.62 -2 21 C-2.66 21 -3.32 21 -4 21 C-4 18.69 -4 16.38 -4 14 C-2.35 13.67 -0.7 13.34 1 13 C0.34 12.01 -0.32 11.02 -1 10 C-1.19850603 6.29455413 -1.17664871 3.52994613 0 0 Z " fill="#31272E" transform="translate(323,492)"/>
<path d="M0 0 C0.33 0 0.66 0 1 0 C1.00146656 0.95490704 1.00293312 1.90981407 1.00444412 2.89365768 C1.04101311 26.11149894 1.10042843 49.32919566 1.18390274 72.54691696 C1.22373924 83.77477005 1.25610828 95.00255258 1.27099609 106.23046875 C1.28398873 116.01489869 1.31089216 125.79917367 1.35461307 135.58351636 C1.37728168 140.76593612 1.39290745 145.94816438 1.39188385 151.13063812 C1.39114042 156.00623697 1.4089631 160.88141164 1.44116783 165.75690079 C1.44970271 167.54836468 1.45139256 169.33987596 1.44580269 171.13135147 C1.43919496 173.57396843 1.4570041 176.01522295 1.48101807 178.45770264 C1.47325765 179.16976765 1.46549723 179.88183267 1.45750165 180.61547542 C1.51851325 184.11106101 1.77771976 185.7297126 4.03243637 188.47139359 C4.68173237 188.9758337 5.33102837 189.48027382 6 190 C4.515 190.99 4.515 190.99 3 192 C1.7811879 195.55672179 1.7811879 195.55672179 1 199 C0.67 199 0.34 199 0 199 C0 133.33 0 67.66 0 0 Z " fill="#916270" transform="translate(2,351)"/>
<path d="M0 0 C0.74076279 0.00197388 1.48152557 0.00394775 2.24473572 0.00598145 C3.01115891 0.00457153 3.77758209 0.00316162 4.56723022 0.00170898 C7.06785125 -0.00043475 9.5683462 0.00587648 12.06895447 0.01379395 C13.33539795 0.0161203 13.33539795 0.0161203 14.62742615 0.01849365 C24.25664933 0.03940377 33.8857853 0.06847292 43.50645447 0.51379395 C44.24033386 0.54457031 44.97421326 0.57534668 45.73033142 0.60705566 C50.89002906 0.899951 55.75791338 1.9015169 60.75645447 3.13879395 C57.05825797 5.17631155 54.79754479 5.25378846 50.56895447 4.82629395 C49.50289978 4.72703613 48.43684509 4.62777832 47.33848572 4.5255127 C44.75645447 4.13879395 44.75645447 4.13879395 43.75645447 3.13879395 C41.2920139 3.04378846 38.8557082 3.01321409 36.39097595 3.02526855 C35.2349588 3.02504951 35.2349588 3.02504951 34.05558777 3.02482605 C31.49621308 3.02552535 28.93691026 3.03331849 26.37754822 3.0411377 C24.60777832 3.04300182 22.8380079 3.04442575 21.0682373 3.04542542 C16.40094081 3.04925106 11.73367523 3.05908174 7.06639099 3.07012939 C2.30748411 3.08034251 -2.45142774 3.08492282 -7.21034241 3.08996582 C-16.55475706 3.10070397 -25.89914873 3.11778095 -35.24354553 3.13879395 C-34.91354553 2.47879395 -34.58354553 1.81879395 -34.24354553 1.13879395 C-32.97909607 1.14664917 -32.97909607 1.14664917 -31.68910217 1.15466309 C-28.57126618 1.1716722 -25.45345376 1.184228 -22.33558655 1.19372559 C-20.98434167 1.19876451 -19.63310227 1.20559572 -18.28187561 1.2142334 C-16.34334119 1.22631814 -14.40476753 1.23149223 -12.46620178 1.2364502 C-11.29839172 1.24168701 -10.13058167 1.24692383 -8.92738342 1.25231934 C-5.75769796 1.11824277 -3.44820676 0.01580322 0 0 Z " fill="#E3D2E8" transform="translate(138.24354553222656,298.8612060546875)"/>
<path d="M0 0 C14.10279877 1.57069086 27.58261197 3.09932281 41 8 C41 8.66 41 9.32 41 10 C39.9790625 9.7834375 39.9790625 9.7834375 38.9375 9.5625 C35.63726918 8.93054091 32.32855574 8.45686059 29 8 C29 7.34 29 6.68 29 6 C27.700625 6.04125 26.40125 6.0825 25.0625 6.125 C20.16408698 6.14055052 15.71823189 5.2492718 11 4 C10.67 4.66 10.34 5.32 10 6 C9.278125 5.54625 8.55625 5.0925 7.8125 4.625 C5.25105919 3.14505642 2.76722011 2.02782461 0 1 C0 0.67 0 0.34 0 0 Z " fill="#BABCEA" transform="translate(243,309)"/>
<path d="M0 0 C0.99 0 1.98 0 3 0 C3 8.25 3 16.5 3 25 C2.67 25 2.34 25 2 25 C2 21.37 2 17.74 2 14 C0.68 14 -0.64 14 -2 14 C-2 16.31 -2 18.62 -2 21 C-2.66 21 -3.32 21 -4 21 C-4 18.69 -4 16.38 -4 14 C-2.35 13.67 -0.7 13.34 1 13 C0.34 12.01 -0.32 11.02 -1 10 C-1.19850603 6.29455413 -1.17664871 3.52994613 0 0 Z " fill="#3B2339" transform="translate(323,492)"/>
<path d="M0 0 C0 0.66 0 1.32 0 2 C-0.61746094 2.03738281 -1.23492187 2.07476562 -1.87109375 2.11328125 C-7.09278448 2.51861797 -11.59036975 3.37185361 -16.49609375 5.1796875 C-20.63657656 6.53616393 -24.91029804 7.30842798 -29.1796875 8.15625 C-32.10705478 9.03202747 -32.98867177 9.83210131 -35 12 C-35.99 12 -36.98 12 -38 12 C-38 11.01 -38 10.02 -38 9 C-32.17759817 6.70855992 -26.37140993 4.92439764 -20.3125 3.375 C-19.48427734 3.1584375 -18.65605469 2.941875 -17.80273438 2.71875 C-11.76939149 1.15365545 -6.27644583 -0.14596386 0 0 Z " fill="#BCBCEB" transform="translate(85,343)"/>
<path d="M0 0 C0.33 0 0.66 0 1 0 C1.0093457 0.9787207 1.01869141 1.95744141 1.02832031 2.96582031 C1.06825458 6.60413791 1.13402134 10.24161291 1.20751953 13.87939453 C1.23570954 15.45252644 1.25693398 17.02579947 1.27099609 18.59912109 C1.29245442 20.86368956 1.33911348 23.12656504 1.390625 25.390625 C1.39185364 26.09181458 1.39308228 26.79300415 1.39434814 27.51544189 C1.49928239 31.02972072 1.77105071 32.72190395 4.03808594 35.47558594 C4.68551758 35.97864258 5.33294922 36.48169922 6 37 C5.01 37.66 4.02 38.32 3 39 C1.7811879 42.55672179 1.7811879 42.55672179 1 46 C0.67 46 0.34 46 0 46 C0 30.82 0 15.64 0 0 Z " fill="#7C5681" transform="translate(2,504)"/>
<path d="M0 0 C5.04388646 0.60671598 9.75711913 1.67189615 14.61328125 3.1796875 C15.30890671 3.39311798 16.00453217 3.60654846 16.72123718 3.82644653 C18.17839595 4.2758381 19.63467344 4.72809644 21.09008789 5.18310547 C23.32026764 5.87741827 25.55530819 6.55419847 27.79101562 7.23046875 C29.21126617 7.67081634 30.63120015 8.11218653 32.05078125 8.5546875 C32.71846024 8.75480438 33.38613922 8.95492126 34.0740509 9.16110229 C37.67682122 10.30826969 38.82812524 10.74218786 41 14 C38.03 14.66 35.06 15.32 32 16 C33.32 15.01 34.64 14.02 36 13 C24.12 9.04 12.24 5.08 0 1 C0 0.67 0 0.34 0 0 Z " fill="#C6D6F8" transform="translate(137,359)"/>
<path d="M0 0 C0.66 0 1.32 0 2 0 C0.69346875 3.76858764 -0.8364418 6.22821896 -3.5625 9.125 C-8.26420396 14.24079898 -12.63601315 19.59552554 -17 25 C-17.33 24.01 -17.66 23.02 -18 22 C-16.40345862 19.81685061 -14.80551881 17.87284644 -13 15.875 C-11.97886464 14.71364806 -10.959337 13.55088057 -9.94140625 12.38671875 C-9.43883301 11.8148584 -8.93625977 11.24299805 -8.41845703 10.65380859 C-5.90531504 7.72368401 -3.62346819 4.6216914 -1.33984375 1.51171875 C-0.89769531 1.01285156 -0.45554687 0.51398438 0 0 Z " fill="#B2BDF0" transform="translate(284,321)"/>
<path d="M0 0 C0.66 0.33 1.32 0.66 2 1 C-0.80530847 3.8546576 -3.61707696 6.70277231 -6.43505859 9.54492188 C-7.39324956 10.51318538 -8.34963982 11.48323426 -9.30419922 12.45507812 C-10.6746382 13.8497097 -12.05206367 15.23746521 -13.4296875 16.625 C-14.25710449 17.46289062 -15.08452148 18.30078125 -15.93701172 19.1640625 C-18 21 -18 21 -20 21 C-17.27612506 14.31412514 -10.55150526 9.75863538 -5.3046875 5.0859375 C-3.4798561 3.43431044 -1.71698015 1.76186852 0 0 Z " fill="#E7BCDC" transform="translate(268,286)"/>
<path d="M0 0 C0.66 0.33 1.32 0.66 2 1 C0.71520959 2.50589388 -0.57804082 4.00457375 -1.875 5.5 C-2.59429687 6.3353125 -3.31359375 7.170625 -4.0546875 8.03125 C-4.69664062 8.6809375 -5.33859375 9.330625 -6 10 C-6.66 10 -7.32 10 -8 10 C-8.33 10.99 -8.66 11.98 -9 13 C-11.875 15.75 -11.875 15.75 -15 18 C-15.99 17.67 -16.98 17.34 -18 17 C-17.2575 16.443125 -16.515 15.88625 -15.75 15.3125 C-12.97284506 13.1447895 -12.97284506 13.1447895 -11.125 10.5625 C-8.84948402 7.81849543 -6.5495489 6.13922614 -3.5859375 4.2109375 C-1.7068569 2.91202766 -1.7068569 2.91202766 0 0 Z " fill="#A86E9A" transform="translate(202,496)"/>
<path d="M0 0 C0.80244141 0.0515625 1.60488281 0.103125 2.43164062 0.15625 C3.68170898 0.25292969 3.68170898 0.25292969 4.95703125 0.3515625 C6.22450195 0.43664062 6.22450195 0.43664062 7.51757812 0.5234375 C9.60224342 0.66477074 11.68599991 0.819395 13.76953125 0.9765625 C13.76953125 1.6365625 13.76953125 2.2965625 13.76953125 2.9765625 C12.57714844 2.95335937 11.38476562 2.93015625 10.15625 2.90625 C8.58985001 2.88749072 7.02344325 2.86929069 5.45703125 2.8515625 C4.67134766 2.83480469 3.88566406 2.81804687 3.07617188 2.80078125 C2.31884766 2.79433594 1.56152344 2.78789062 0.78125 2.78125 C0.08475342 2.77077637 -0.61174316 2.76030273 -1.3293457 2.74951172 C-3.56164175 2.87081655 -3.56164175 2.87081655 -6.23046875 4.9765625 C-6.56046875 3.9865625 -6.89046875 2.9965625 -7.23046875 1.9765625 C-4.0556343 -0.1399938 -3.5634787 -0.25272899 0 0 Z " fill="#E4D2E9" transform="translate(78.23046875,299.0234375)"/>
<path d="M0 0 C0.66 0.33 1.32 0.66 2 1 C0.84960919 2.15039081 -0.30111734 3.30044707 -1.453125 4.44921875 C-2.51040298 5.50916662 -3.56225995 6.57454233 -4.609375 7.64453125 C-16.09740531 19.31700241 -16.09740531 19.31700241 -22 22 C-21.06409496 20.8944811 -20.12620142 19.79064547 -19.1875 18.6875 C-18.40439453 17.76517578 -18.40439453 17.76517578 -17.60546875 16.82421875 C-14.6626898 13.48047722 -14.6626898 13.48047722 -13 12 C-12.34 12 -11.68 12 -11 12 C-10.67 11.01 -10.34 10.02 -10 9 C-8.44140625 7.39453125 -8.44140625 7.39453125 -6.5625 5.8125 C-5.94503906 5.28269531 -5.32757813 4.75289063 -4.69140625 4.20703125 C-3 3 -3 3 -1 3 C-0.67 2.01 -0.34 1.02 0 0 Z " fill="#EABADA" transform="translate(305,252)"/>
<path d="M0 0 C2.31 0 4.62 0 7 0 C7.25 2.8125 7.25 2.8125 7 6 C5.68662604 7.0260734 4.35335895 8.02727325 3 9 C2.66574265 11.62625139 2.66574265 11.62625139 3 14 C2.67 13.01 2.34 12.02 2 11 C0.35 11 -1.3 11 -3 11 C-3 10.34 -3 9.68 -3 9 C-2.360625 8.896875 -1.72125 8.79375 -1.0625 8.6875 C-0.0415625 8.3471875 -0.0415625 8.3471875 1 8 C1.33 7.01 1.66 6.02 2 5 C4.0625 4.3125 4.0625 4.3125 6 4 C6 3.01 6 2.02 6 1 C4.02 1 2.04 1 0 1 C0 0.67 0 0.34 0 0 Z " fill="#5D3062" transform="translate(301,595)"/>
<path d="M0 0 C0.99 0.33 1.98 0.66 3 1 C-1.29 7.27 -5.58 13.54 -10 20 C-10.99 18.68 -11.98 17.36 -13 16 C-11.824375 15.38125 -11.824375 15.38125 -10.625 14.75 C-7.94108344 12.9607223 -7.11901051 11.95011861 -6 9 C-5.34 9 -4.68 9 -4 9 C-4 8.01 -4 7.02 -4 6 C-3.34 5.67 -2.68 5.34 -2 5 C-1.27840576 3.35636866 -0.60648579 1.68949614 0 0 Z " fill="#BCB6E1" transform="translate(237,443)"/>
<path d="M0 0 C0.66 0 1.32 0 2 0 C1.67 1.65 1.34 3.3 1 5 C-1.58157368 5.53132389 -4.16461756 6.05034379 -6.75 6.5625 C-7.47960937 6.71396484 -8.20921875 6.86542969 -8.9609375 7.02148438 C-12.66557073 7.74557178 -15.39322322 8.09817231 -19 7 C-12.68369407 5.25837153 -6.36352045 3.56086351 0 2 C0 1.34 0 0.68 0 0 Z " fill="#B9BDED" transform="translate(78,377)"/>
<path d="M0 0 C0.66 0.33 1.32 0.66 2 1 C1.67 1.66 1.34 2.32 1 3 C0.34 3 -0.32 3 -1 3 C-1.2578125 3.70640625 -1.515625 4.4128125 -1.78125 5.140625 C-3.0989787 8.23221926 -4.69346836 10.91772581 -6.5 13.75 C-7.1084375 14.71421875 -7.716875 15.6784375 -8.34375 16.671875 C-10 19 -10 19 -12 20 C-12 16 -12 16 -10.1953125 14.0703125 C-9.47085937 13.38710938 -8.74640625 12.70390625 -8 12 C-6.90826539 10.32322101 -5.86603167 8.6131969 -4.875 6.875 C-3.36376297 4.23620788 -2.15343684 2.15343684 0 0 Z " fill="#B7B7DD" transform="translate(295,359)"/>
<path d="M0 0 C0.66 0.33 1.32 0.66 2 1 C1.55269531 1.70125 1.10539062 2.4025 0.64453125 3.125 C-2.92973257 8.73407926 -6.4845049 14.3539018 -10 20 C-10 12.73693269 -4.00795124 5.77144979 0 0 Z " fill="#A26A96" transform="translate(302,484)"/>
<path d="M0 0 C0 3.51663411 -0.66325487 4.27276873 -2.75 7 C-3.51570313 8.0209375 -3.51570313 8.0209375 -4.296875 9.0625 C-6.0384143 11.04370067 -7.83987995 12.49730779 -10 14 C-9.34 12.02 -8.68 10.04 -8 8 C-7.34 8 -6.68 8 -6 8 C-5.938125 7.4225 -5.87625 6.845 -5.8125 6.25 C-4.67972699 3.11309013 -2.65802405 1.90832496 0 0 Z " fill="#BCA8CC" transform="translate(269,400)"/>
<path d="M0 0 C2 2 2 2 2 5 C1.34 5 0.68 5 0 5 C0.309375 6.175625 0.309375 6.175625 0.625 7.375 C0.74875 8.24125 0.8725 9.1075 1 10 C-1 12 -1 12 -4.125 12.125 C-5.548125 12.063125 -5.548125 12.063125 -7 12 C-7 11.67 -7 11.34 -7 11 C-5.35 11 -3.7 11 -2 11 C-2 8.36 -2 5.72 -2 3 C-1.34 3 -0.68 3 0 3 C0 2.01 0 1.02 0 0 Z " fill="#5E3261" transform="translate(316,522)"/>
<path d="M0 0 C-3.52228709 2.21742045 -6.09957251 2.1284196 -10.1875 1.75 C-11.78658203 1.61851562 -11.78658203 1.61851562 -13.41796875 1.484375 C-14.27003906 1.32453125 -15.12210938 1.1646875 -16 1 C-16.33 0.34 -16.66 -0.32 -17 -1 C-10.90367577 -2.32528788 -6.02232181 -1.46619907 0 0 Z " fill="#DED6EB" transform="translate(199,302)"/>
<path d="M0 0 C0.99 0 1.98 0 3 0 C3.66 1.65 4.32 3.3 5 5 C3.68 4.67 2.36 4.34 1 4 C-0.98 6.64 -2.96 9.28 -5 12 C-6 9 -6 9 -4.890625 6.73828125 C-4.34921875 5.93777344 -3.8078125 5.13726562 -3.25 4.3125 C-2.71890625 3.50425781 -2.1878125 2.69601562 -1.640625 1.86328125 C-1.09921875 1.24839844 -0.5578125 0.63351562 0 0 Z " fill="#CEA0AC" transform="translate(316,330)"/>
<path d="M0 0 C0.66 0 1.32 0 2 0 C6.59225513 9.41002278 6.59225513 9.41002278 6 14 C5.33333333 12.66666667 4.66666667 11.33333333 4 10 C3.62875 9.319375 3.2575 8.63875 2.875 7.9375 C2 6 2 6 2 3 C0.68 3.33 -0.64 3.66 -2 4 C-1.34 2.68 -0.68 1.36 0 0 Z " fill="#552548" transform="translate(18,519)"/>
<path d="M0 0 C2.475 0.495 2.475 0.495 5 1 C5.33 2.98 5.66 4.96 6 7 C4.68 7.33 3.36 7.66 2 8 C2.33 6.35 2.66 4.7 3 3 C2.01 3 1.02 3 0 3 C0 2.01 0 1.02 0 0 Z " fill="#5A2F5C" transform="translate(231,593)"/>
<path d="M0 0 C0.33 1.32 0.66 2.64 1 4 C0.01 4 -0.98 4 -2 4 C-2.04898438 4.62648438 -2.09796875 5.25296875 -2.1484375 5.8984375 C-2.22320312 6.71570313 -2.29796875 7.53296875 -2.375 8.375 C-2.44460937 9.18710937 -2.51421875 9.99921875 -2.5859375 10.8359375 C-3 13 -3 13 -5 15 C-5.23009967 10.28295683 -4.62384701 6.44421286 -3 2 C-2.01 1.34 -1.02 0.68 0 0 Z " fill="#643B6A" transform="translate(243,564)"/>
<path d="M0 0 C0.33 0.66 0.66 1.32 1 2 C-4.71735105 4.45029331 -8.79029227 5.33266291 -15 5 C-11.83433427 2.88955618 -9.48802585 2.24447923 -5.8125 1.375 C-4.72582031 1.11460937 -3.63914062 0.85421875 -2.51953125 0.5859375 C-1.68808594 0.39257812 -0.85664062 0.19921875 0 0 Z " fill="#BCBEEB" transform="translate(100,338)"/>
<path d="M0 0 C1.32 0.33 2.64 0.66 4 1 C4 2.65 4 4.3 4 6 C3.01 6 2.02 6 1 6 C1 5.34 1 4.68 1 4 C-0.32 3.34 -1.64 2.68 -3 2 C-2.01 2 -1.02 2 0 2 C0 1.34 0 0.68 0 0 Z " fill="#754779" transform="translate(203,603)"/>
<path d="M0 0 C1.98 0.495 1.98 0.495 4 1 C3.67 1.33 3.34 1.66 3 2 C2.92820036 3.51928038 2.91607993 5.04167482 2.9375 6.5625 C2.94652344 7.38878906 2.95554688 8.21507812 2.96484375 9.06640625 C2.97644531 9.70449219 2.98804688 10.34257812 3 11 C1 10 1 10 0.33203125 8.22265625 C0.07486328 7.15337891 0.07486328 7.15337891 -0.1875 6.0625 C-0.36667969 5.35222656 -0.54585937 4.64195312 -0.73046875 3.91015625 C-1 2 -1 2 0 0 Z " fill="#ACAEE2" transform="translate(59,385)"/>
<path d="M0 0 C1.65 0 3.3 0 5 0 C5 0.99 5 1.98 5 3 C5.66 3.33 6.32 3.66 7 4 C5 4 3 4 1 4 C0.34 4.99 -0.32 5.98 -1 7 C-0.67 4.69 -0.34 2.38 0 0 Z " fill="#DDCCEB" transform="translate(174,436)"/>
<path d="M0 0 C0 4.54960762 -2.12127294 7.07105996 -5.1875 10.3125 C-6.0846875 11.1478125 -6.0846875 11.1478125 -7 12 C-6.38801624 8.56049636 -5.07941153 6.48435515 -2.9375 3.75 C-2.38964844 3.04359375 -1.84179688 2.3371875 -1.27734375 1.609375 C-0.85582031 1.07828125 -0.43429687 0.5471875 0 0 Z " fill="#C99AA7" transform="translate(309,342)"/>
<path d="M0 0 C2.64 0 5.28 0 8 0 C7.01 0.33 6.02 0.66 5 1 C5.66 2.65 6.32 4.3 7 6 C4.50638429 4.79618552 2.31856917 3.54571278 0 2 C0 1.34 0 0.68 0 0 Z " fill="#B8CAF2" transform="translate(190,431)"/>
<path d="M0 0 C0.99 0.33 1.98 0.66 3 1 C-0.12488567 3.52394612 -3.31314387 5.39701907 -7 7 C-7.66 6.67 -8.32 6.34 -9 6 C-6.11861791 3.75892504 -3.25320657 1.66831106 0 0 Z " fill="#BBCBEF" transform="translate(166,406)"/>
<path d="M0 0 C2.475 0.99 2.475 0.99 5 2 C4.525625 2.391875 4.05125 2.78375 3.5625 3.1875 C1.64820367 5.40808374 1.38733012 7.13375709 1 10 C0.67 10 0.34 10 0 10 C0 6.7 0 3.4 0 0 Z " fill="#925E8D" transform="translate(3,538)"/>
<path d="M0 0 C5.28 0 10.56 0 16 0 C16 0.33 16 0.66 16 1 C13.89594609 1.16808419 11.79175242 1.33441948 9.6875 1.5 C8.51574219 1.5928125 7.34398437 1.685625 6.13671875 1.78125 C4.094806 1.92364989 2.0468721 2 0 2 C0 1.34 0 0.68 0 0 Z " fill="#3D1230" transform="translate(296,572)"/>
<path d="M0 0 C6.625 0.75 6.625 0.75 10 3 C9 4 9 4 5.9375 4.0625 C4.968125 4.041875 3.99875 4.02125 3 4 C3 3.34 3 2.68 3 2 C2.01 1.34 1.02 0.68 0 0 Z " fill="#CBD6F3" transform="translate(172,343)"/>
<path d="M0 0 C1.32 0 2.64 0 4 0 C3.67 1.32 3.34 2.64 3 4 C2.34 4 1.68 4 1 4 C1 4.66 1 5.32 1 6 C0.34 6 -0.32 6 -1 6 C-0.67 4.02 -0.34 2.04 0 0 Z " fill="#4F2148" transform="translate(199,599)"/>
<path d="M0 0 C0 3.41321235 -0.66867466 4.39472885 -2.5 7.1875 C-2.9640625 7.90292969 -3.428125 8.61835938 -3.90625 9.35546875 C-4.2671875 9.89816406 -4.628125 10.44085938 -5 11 C-5.66 10.01 -6.32 9.02 -7 8 C-6.01 7.34 -5.02 6.68 -4 6 C-2.9590934 4.35857037 -1.95495674 2.69287785 -1 1 C-0.67 0.67 -0.34 0.34 0 0 Z " fill="#BFB5DF" transform="translate(256,417)"/>
<path d="M0 0 C0.66 0 1.32 0 2 0 C2.66 2.31 3.32 4.62 4 7 C2.35 6.01 0.7 5.02 -1 4 C-0.67 2.68 -0.34 1.36 0 0 Z " fill="#663B6C" transform="translate(261,544)"/>
<path d="M0 0 C0.66 0 1.32 0 2 0 C3.65 2.97 5.3 5.94 7 9 C3.24440513 7.12220256 2.07034892 6.41607572 0 3 C0 2.01 0 1.02 0 0 Z " fill="#6D3E6A" transform="translate(178,535)"/>
<path d="M0 0 C0.66 0 1.32 0 2 0 C1.34 1.65 0.68 3.3 0 5 C-0.99 5 -1.98 5 -3 5 C-3.33 3.68 -3.66 2.36 -4 1 C-2.68 1.33 -1.36 1.66 0 2 C0 1.34 0 0.68 0 0 Z " fill="#C6B5E5" transform="translate(100,472)"/>
<path d="M0 0 C1.98 0.66 3.96 1.32 6 2 C6 2.66 6 3.32 6 4 C6.99 4.33 7.98 4.66 9 5 C8.34 5 7.68 5 7 5 C6.67 5.66 6.34 6.32 6 7 C5.566875 6.360625 5.13375 5.72125 4.6875 5.0625 C3.08760823 2.73253997 3.08760823 2.73253997 0 2 C0 1.34 0 0.68 0 0 Z " fill="#B4B1E8" transform="translate(109,460)"/>
<path d="M0 0 C3.68754757 0.49831724 5.60490662 1.10067643 8 4 C7.01 4.495 7.01 4.495 6 5 C3.98079663 3.69593116 1.98075027 2.36176581 0 1 C0 0.67 0 0.34 0 0 Z " fill="#BBCCED" transform="translate(214,405)"/>
<path d="M0 0 C0.33 0.66 0.66 1.32 1 2 C3.32156597 2.40729228 5.6568787 2.74438677 8 3 C7.67 3.66 7.34 4.32 7 5 C4.625 5.125 4.625 5.125 2 5 C1.34 4.34 0.68 3.68 0 3 C0 2.01 0 1.02 0 0 Z " fill="#592A51" transform="translate(31,572)"/>
<path d="M0 0 C-0.33 0.99 -0.66 1.98 -1 3 C-2.65 2.67 -4.3 2.34 -6 2 C-6 1.34 -6 0.68 -6 0 C-3.50907189 -1.24546405 -2.58919267 -0.7767578 0 0 Z " fill="#411641" transform="translate(311,557)"/>
<path d="M0 0 C0.66 0.33 1.32 0.66 2 1 C-0.475 5.455 -0.475 5.455 -3 10 C-4 7 -4 7 -3.22265625 5.17578125 C-2.1484375 3.45052083 -1.07421875 1.72526042 0 0 Z " fill="#AD769A" transform="translate(317,459)"/>
<path d="M0 0 C2.0625 2.25 2.0625 2.25 4 5 C3.75 7.3125 3.75 7.3125 3 9 C0.23776722 6.23776722 0.42143709 3.79293383 0 0 Z " fill="#CDB0C7" transform="translate(320,330)"/>
<path d="M0 0 C1.65 0 3.3 0 5 0 C4.67 1.65 4.34 3.3 4 5 C3.34 4.34 2.68 3.68 2 3 C1.01 3.495 1.01 3.495 0 4 C0 2.68 0 1.36 0 0 Z " fill="#9BC1F1" transform="translate(3,0)"/>
</svg>
